<?xml version="1.0" encoding="utf-8"?>
<svg viewBox="46.358 4.647 413.077 492.048" xmlns="http://www.w3.org/2000/svg">
  <defs>
    <clipPath id="clipPath16" clipPathUnits="userSpaceOnUse">
      <path id="path18" d="M 0,36 36,36 36,0 0,0 0,36 Z"/>
    </clipPath>
  </defs>
  <g transform="matrix(10.442982673645, -1.024721980095, -0.218083024025, -10.435886383057, 233.433631970682, 237.964396883581)" id="g10" style="transform-origin: 18px 18.0086px;">
    <g id="g12">
      <g clip-path="url(#clipPath16)" id="g14">
        <g transform="translate(2,20)" id="g20">
          <path id="path22" style="fill:#ffcc4d;fill-opacity:1;fill-rule:nonzero;stroke:none" d="m 0,0 c 0,-8.837 7.164,-16 16,-16 8.837,0 16,7.163 16,16 C 32,8.836 24.837,16 16,16 7.164,16 0,8.836 0,0"/>
        </g>
        <g transform="translate(15.4063,25.5)" id="g24">
          <path id="path26" style="fill:#664500;fill-opacity:1;fill-rule:nonzero;stroke:none" d="m 0,0 c 0,-1.381 -0.896,-2.5 -2,-2.5 -1.104,0 -2,1.119 -2,2.5 0,1.38 0.896,2.5 2,2.5 1.104,0 2,-1.12 2,-2.5"/>
        </g>
        <g transform="translate(26,24.5)" id="g28">
          <path id="path30" style="fill:#664500;fill-opacity:1;fill-rule:nonzero;stroke:none" d="m 0,0 c 0,-1.381 -0.895,-2.5 -2,-2.5 -1.104,0 -2,1.119 -2,2.5 0,1.38 0.896,2.5 2,2.5 1.105,0 2,-1.12 2,-2.5"/>
        </g>
        <g transform="translate(9.6709,29.667)" id="g32">
          <path id="path34" style="fill:#664500;fill-opacity:1;fill-rule:nonzero;stroke:none" d="M 0,0 C -0.164,0.087 -0.303,0.223 -0.391,0.398 -0.607,0.827 -0.431,1.325 0.002,1.511 4.268,3.341 7.701,1.554 7.845,1.477 8.278,1.246 8.453,0.729 8.236,0.323 8.02,-0.082 7.496,-0.223 7.063,0.005 6.94,0.069 4.231,1.437 0.785,-0.042 0.528,-0.151 0.238,-0.127 0,0"/>
        </g>
        <g transform="translate(14.7427,16.4277)" id="g36">
          <path id="path38" style="fill:#664500;fill-opacity:1;fill-rule:nonzero;stroke:none" d="M 0,0 C -0.136,0.127 -0.236,0.293 -0.276,0.486 -0.375,0.955 -0.078,1.392 0.389,1.46 4.981,2.138 7.841,-0.469 7.962,-0.58 8.322,-0.914 8.357,-1.457 8.044,-1.795 7.732,-2.131 7.189,-2.133 6.83,-1.801 6.726,-1.709 4.458,0.307 0.748,-0.24 0.471,-0.281 0.197,-0.184 0,0"/>
        </g>
        <g transform="translate(20.4307,25.917)" id="g40">
          <path id="path42" style="fill:#664500;fill-opacity:1;fill-rule:nonzero;stroke:none" d="M 0,0 C -0.156,0.098 -0.286,0.243 -0.362,0.424 -0.549,0.866 -0.339,1.352 0.105,1.508 4.486,3.044 7.79,1.028 7.929,0.941 8.344,0.681 8.483,0.154 8.24,-0.237 7.998,-0.627 7.464,-0.732 7.049,-0.475 6.929,-0.402 4.321,1.146 0.782,-0.095 0.518,-0.187 0.23,-0.143 0,0"/>
        </g>
        <g transform="translate(17.2764,0.8682)" id="g44"/>
      </g>
    </g>
  </g>
  <path d="M 82.806 314.455 L 88.881 314.455 L 91.052 144.365 L 82.806 144.365 C 62.676 144.365 46.358 160.683 46.358 180.812 L 46.358 278.007 C 46.358 298.136 62.676 314.455 82.806 314.455 Z" fill="#1E3050" style="" transform="matrix(1, 0, 0, 1, 2.842170943040401e-14, 0)"/>
  <path d="M 422.987 144.365 L 414.742 144.365 L 415.289 314.455 L 422.987 314.455 C 443.117 314.455 459.435 298.136 459.435 278.007 L 459.435 180.812 C 459.435 160.683 443.117 144.365 422.987 144.365 Z" fill="#1E3050" style="" transform="matrix(1, 0, 0, 1, 2.842170943040401e-14, 0)"/>
  <path d="M 252.897 496.695 C 280.936 496.695 304.537 477.699 311.534 451.875 L 309.222 413.153 C 300.207 390.9 278.384 375.202 252.897 375.202 C 219.348 375.202 192.15 402.399 192.15 435.948 C 192.15 469.498 219.348 496.695 252.897 496.695 Z" fill="#1E3050" style="" transform="matrix(1, 0, 0, 1, 2.842170943040401e-14, 0)"/>
  <path d="M 252.891 4.647 C 171.134 4.647 103.791 65.348 91.047 144.365 L 88.876 314.455 L 88.876 320.259 C 88.876 330.324 97.034 338.483 107.1 338.483 C 117.164 338.483 125.324 330.324 125.324 320.259 L 125.324 314.455 L 125.324 171.565 C 125.324 99.168 182.775 41.095 252.891 41.095 C 323.008 41.095 380.459 99.168 380.459 171.565 L 380.459 295.477 C 380.459 318.018 368.941 347.083 351.063 372.394 C 342.298 384.803 332.472 395.624 322.699 403.728 C 317.934 407.68 313.405 410.802 309.216 413.153 L 311.528 451.874 C 323.745 447.85 335.449 440.506 345.967 431.784 C 358.592 421.313 370.532 408.007 380.834 393.422 C 397.254 370.176 410.758 341.862 415.283 314.455 L 414.735 144.365 C 401.991 65.348 334.648 4.647 252.891 4.647 Z" fill="#67838B" style="" transform="matrix(1, 0, 0, 1, 2.842170943040401e-14, 0)"/>
  <path id="path46" style="fill: rgb(244, 144, 12); fill-opacity: 1; fill-rule: nonzero; stroke: none;" d="M 247.616 435.589 C 247.616 435.589 260.736 430.004 262.244 420.016 C 263.838 409.706 255.472 408.477 255.472 408.477 C 255.472 408.477 266.299 405.24 267.411 392.916 C 268.456 381.31 258.113 379.576 258.113 379.576 C 258.113 379.576 268.155 374.407 268.387 362.474 C 268.574 352.426 257.684 348.59 257.684 348.59 C 257.684 348.59 310.03 330.696 315.403 328.914 C 320.765 327.123 329.064 321.131 326.208 310.129 C 323.371 299.113 313.39 299.695 308.257 301.402 C 303.123 303.118 238.171 324.666 215.766 332.114 C 213.375 332.902 202.172 336.606 200.811 337.074 C 195.199 338.952 192.589 336.72 196.47 332.145 C 201.668 326.03 204.922 319.509 205.899 309.124 C 206.916 298.191 202.971 285.213 200.764 280.253 C 196.658 271.025 189.909 264.074 182.242 262.212 C 170.273 259.309 161.99 267.556 166.479 280.083 C 173.191 298.823 169.398 315.09 158.717 325.737 C 133.612 350.758 122.042 367.976 130.684 401.407 C 140.1 437.867 177.674 458.243 214.827 445.938 C 216.792 445.307 247.616 435.589 247.616 435.589" transform="matrix(1, 0, 0, 1, 2.842170943040401e-14, 0)"/>
</svg>